<svg xmlns="http://www.w3.org/2000/svg" viewBox="0 0 113.4 48.65"><defs><style>.cls-1{fill:#fff;}</style></defs><title>arrow</title><g id="Camada_2" data-name="Camada 2"><g id="Graphic"><path class="cls-1" d="M92.47,47.42l.12-.08v-.06l-.06,0Z"/><path class="cls-1" d="M112.49,23.23a3.37,3.37,0,0,0-2.3-1.92,5.19,5.19,0,0,1-1.33-.57c-2.34-1.34-4.65-2.72-7-4.06-3.3-1.88-6.51-3.93-10-5.51a26.73,26.73,0,0,1-2.67-1.58,1.78,1.78,0,0,0-.75-.33c-.22,0-.67.18-.66.26.06.84-.5,1.34-.89,2-.55.83-.37,1.33.58,1.81.74.38,1.52.67,2.27,1a4.71,4.71,0,0,1,.8.63s0,.12,0,.17-.11.13-.16.12a10.52,10.52,0,0,1-1.58-.43c-1-.4-1.89-.87-2.83-1.32-.33-.16-.67-.23-.9.16a.92.92,0,0,0,0,1.15,1.65,1.65,0,0,0,.69.43,54.67,54.67,0,0,1,9.34,4.43c.77.45,1.62.78,2.41,1.21,1.46.78,2.92,1.57,4.35,2.41l.08,0-1.38.05c-.48,0-1,.11-1.44.16-.76.07-1.51.15-2.26.17s-1.66,0-2.49,0c-2.07.1-4.15.21-6.22.35-2.62.17-5.24.27-7.85.58s-5.11.44-7.67.6c-1.31.08-2.65-.07-3.94.11-1.72.25-3.44.23-5.17.37-2.2.17-4.41.54-6.62.59-5.19.14-10.35.91-15.56.81-3.45-.06-6.9.69-10.36,0a.94.94,0,0,0-.6.05c-.22.13-.49.35-.52.56s.24.45.44.56a2,2,0,0,0,.81.15,16.11,16.11,0,0,0,4.33.19c.14,0,.31.1.46.15a1.49,1.49,0,0,1-.39.13c-1.86.18-3.72.37-5.58.52-1,.09-1.89.45-1.73.78A2.54,2.54,0,0,0,30,31.32a3,3,0,0,0,1,0c1.18-.08,2.35-.18,3.52-.27a.92.92,0,0,1,0,.16l3.94-.29c.08,0,.17.11.26.17s-.07.13-.12.15-.28.06-.4.11c-.84.42-1.8.07-2.61.31a6.42,6.42,0,0,1-2.85.27,1,1,0,0,0-1.17.65,1.74,1.74,0,0,1-2,1,4.63,4.63,0,0,0-.8-.14c-.13,0-.29.22-.35.38a.39.39,0,0,0,.12.36,1,1,0,0,0,.57.22,54.79,54.79,0,0,0,6,0c3.44-.4,6.88-.67,10.33-1,2.13-.18,4.27-.3,6.41-.48a15.73,15.73,0,0,1,2.24-.27c3.12.18,6.21-.37,9.33-.22A61.55,61.55,0,0,0,70,32.12c4.36-.27,8.68-.89,13-1.41,1.37-.17,2.76-.24,4.14-.37,4.82-.46,9.64-.92,14.48-.95l-4.25,5.28c-.35.42-.77.79-1.16,1.18a33.11,33.11,0,0,0-5.06,6c-.25.39-.76.89-.35,1.29.57.57.88-.31,1.33-.48.07,0,.11-.1.17-.11a2.41,2.41,0,0,1,.38,0,1.21,1.21,0,0,1-.09.34c-.49.67-1,1.33-1.48,2-.15.21-.36.5,0,.69a.68.68,0,0,0,.59,0,3,3,0,0,0,1.68-1.73,4.47,4.47,0,0,1,1-1.52c.74-.83,1.53-1.61,2.32-2.38s1.72-1.61,2.59-2.4c.08-.08.23-.08.35-.12s0,.27,0,.34c-1.08,1.26-2.1,2.58-3.28,3.73C94.81,43,94,45.07,92.69,46.74c-.1.12-.08.35-.1.54l.75-.18c.29-.08.57-.13.46.33s-.56,1,.1,1.21c.29.09.81-.4,1.15-.72a1.86,1.86,0,0,0,.51-.88,7.3,7.3,0,0,1,2.14-3.26c1.76-1.85,3.56-3.67,5.21-5.63,2.31-2.75,4.5-5.62,6.74-8.43.35-.43.65-1,1.1-1.2a2.92,2.92,0,0,0,1.7-1.69c.31-.61.94-1.18,1-1.78S112.81,23.84,112.49,23.23ZM41.38,31.11a2.12,2.12,0,0,1-.55-.14l.43-.38.46.33C41.61,31,41.49,31.12,41.38,31.11Zm14.45-1.94c-.95.1-1.91.16-2.86.23a.53.53,0,0,1,0-.13l-2.86.22a1.76,1.76,0,0,1-.39-.06,1.12,1.12,0,0,1,.4-.24q2.85-.3,5.7-.56c.17,0,.35.16.53.25C56.17,29,56,29.15,55.83,29.17Zm5.37-.61-.15-.07.16,0ZM64,28.43c-.39,0-.6.07-.8.06s-.16-.13-.25-.2.1-.12.15-.13a3.17,3.17,0,0,1,.61-.07c.36,0,.72.1,1.09.15Zm7-.56c-.54.1-1.08.17-1.78.28H67.49a1.55,1.55,0,0,1-.36-.08c.14-.12.27-.3.43-.35A9,9,0,0,1,71,27.54a1.58,1.58,0,0,1,.37.11C71.23,27.72,71.1,27.85,71,27.87Zm35-.16h0l0,0Zm-4-7.09.32.14a1.13,1.13,0,0,1-.15.21s-.15,0-.15,0A1.51,1.51,0,0,1,102,20.62Zm1.94,1.67c0-.06,0-.24,0-.35s.12,0,.28-.1a6,6,0,0,1,2.22,1.34l-1.36.05A4.66,4.66,0,0,1,103.94,22.29Zm-3,3.6a6.51,6.51,0,0,1-1.2.28c-2.07.18-4.14.33-6.22.49h0c-1.93.15-3.86.32-5.79.44-.9.06-1.8,0-2.69,0-3.73.17-7.45.37-11.18.55a.34.34,0,0,1-.2,0,1.38,1.38,0,0,1-.25-.17s.09-.11.15-.12q.7-.15,1.41-.27l3.26-.48a7.64,7.64,0,0,1,.82-.1c1.93-.09,3.86-.11,5.79-.25,1.72-.13,3.43-.42,5.15-.55,1.93-.15,3.87-.19,5.81-.28,1.31-.06,2.62-.15,3.94-.17a4.3,4.3,0,0,1,1.18.31A.61.61,0,0,1,100.9,25.89Zm-2,10.29c-1.1,1.16-2.22,2.28-3.33,3.42a1.75,1.75,0,0,1-.48.38.43.43,0,0,1-.38,0c-.08,0-.15-.26-.1-.33a9.52,9.52,0,0,1,1.14-1.7c1.51-1.51,3.14-2.91,4.63-4.44,1.27-1.31,2.47-2.7,3.68-4.06h.5a4.87,4.87,0,0,0,.54,0,7.88,7.88,0,0,1-.55.74C102.74,32.18,100.83,34.18,98.94,36.18Zm13-11.5a2,2,0,0,1-.62-.26s.1-.3.15-.47c.21.11.43.21.64.3C112,24.46,111.91,24.68,111.9,24.68Z"/><path class="cls-1" d="M14.57,2.21l.11,1.43L16,3.54l0,.69-1.29.1L14.92,7c.05.61.25,1,.75.91a2.06,2.06,0,0,0,.52-.1l.09.68a2.43,2.43,0,0,1-.79.18,1.25,1.25,0,0,1-1-.31A1.86,1.86,0,0,1,14,7.1l-.2-2.71-.77.06L13,3.76l.77-.06L13.7,2.51Z"/><path class="cls-1" d="M17.63,6.08a1.59,1.59,0,0,0,1.83,1.6,3.1,3.1,0,0,0,1.35-.36L21,8a4,4,0,0,1-1.63.43,2.31,2.31,0,0,1-2.63-2.32,2.42,2.42,0,0,1,2.13-2.86A2.12,2.12,0,0,1,21.12,5.4c0,.19,0,.33,0,.43Zm2.6-.84c0-.57-.35-1.45-1.36-1.37a1.48,1.48,0,0,0-1.28,1.57Z"/><path class="cls-1" d="M22.17,4.44c0-.52-.08-.94-.14-1.35l.8-.06.12.82h0a1.85,1.85,0,0,1,1.57-1.06c.69,0,1.79.29,1.91,2l.22,3-.9.07L25.56,5c-.06-.8-.41-1.45-1.26-1.38a1.29,1.29,0,0,0-1.15,1,1.45,1.45,0,0,0,0,.43l.23,3-.91.07Z"/><path class="cls-1" d="M27.6.35l.91-.07.23,3.1h0a1.57,1.57,0,0,1,.6-.68,1.81,1.81,0,0,1,.9-.33c.67-.05,1.77.28,1.9,2l.22,3-.91.06-.21-2.85c-.06-.8-.41-1.46-1.26-1.4a1.3,1.3,0,0,0-1.14,1,.85.85,0,0,0,0,.43l.22,3-.91.07Z"/><path class="cls-1" d="M36.6,7l-.12-.62h0A1.86,1.86,0,0,1,35,7.25a1.43,1.43,0,0,1-1.63-1.32c-.09-1.2.93-1.94,2.85-2.07v-.1A1,1,0,0,0,35,2.69a2.57,2.57,0,0,0-1.27.47l-.25-.58A3,3,0,0,1,35.07,2c1.52-.12,2,.89,2,1.89l.14,1.86A6.43,6.43,0,0,0,37.42,7Zm-.32-2.52c-1,0-2.1.31-2,1.27a.79.79,0,0,0,.91.8,1.24,1.24,0,0,0,1.14-.92.72.72,0,0,0,0-.29Z"/><path class="cls-1" d="M40.71,3.06c0-.51-.08-.93-.14-1.34l.8-.06.11.82h0a1.85,1.85,0,0,1,1.58-1.06c.68,0,1.78.28,1.91,2l.22,3-.9.06-.22-2.86c-.06-.8-.4-1.45-1.26-1.39a1.3,1.3,0,0,0-1.14,1,1.38,1.38,0,0,0,0,.42l.22,3-.9.07Z"/><path class="cls-1" d="M51,3.41a2.43,2.43,0,0,1-2.28,2.82,2.37,2.37,0,0,1-2.57-2.38A2.43,2.43,0,0,1,48.41,1,2.35,2.35,0,0,1,51,3.41Zm-3.94.34c.08,1.09.77,1.86,1.65,1.8s1.45-.92,1.37-2c-.06-.85-.56-1.88-1.63-1.8S47,2.81,47.05,3.75Z"/><path class="cls-1" d="M52.13,4.93a2.37,2.37,0,0,0,1.22.28c.66,0,.94-.4.91-.82s-.31-.64-1-.84c-.92-.25-1.38-.71-1.42-1.31A1.54,1.54,0,0,1,53.45.65,2.62,2.62,0,0,1,54.7.87l-.18.68a1.92,1.92,0,0,0-1-.22c-.54,0-.81.37-.79.74s.34.58,1,.78c.89.26,1.36.66,1.42,1.4s-.57,1.54-1.75,1.62A2.77,2.77,0,0,1,52,5.64Z"/><path class="cls-1" d="M56.2,4.63a2.27,2.27,0,0,0,1.22.27c.65,0,.94-.4.91-.81s-.31-.65-1-.84C56.42,3,56,2.53,55.92,1.94A1.54,1.54,0,0,1,57.52.35a2.62,2.62,0,0,1,1.25.22l-.18.67a2.05,2.05,0,0,0-1-.21c-.53,0-.81.37-.78.74s.34.58,1,.77c.89.27,1.36.67,1.41,1.41s-.56,1.54-1.74,1.62A2.88,2.88,0,0,1,56,5.34Z"/><path class="cls-1" d="M64.77,2.39a2.43,2.43,0,0,1-2.28,2.82,2.37,2.37,0,0,1-2.57-2.38A2.43,2.43,0,0,1,62.19,0,2.35,2.35,0,0,1,64.77,2.39Zm-3.94.34c.08,1.09.77,1.86,1.65,1.8s1.45-.92,1.37-2c-.06-.85-.56-1.88-1.63-1.8S60.76,1.79,60.83,2.73Z"/><path class="cls-1" d="M4.08,21.63a3.36,3.36,0,0,1-1.41.4A2.37,2.37,0,0,1,0,19.67a2.53,2.53,0,0,1,2.47-2.83A3,3,0,0,1,3.76,17l-.16.71a2.23,2.23,0,0,0-1.06-.16,1.73,1.73,0,0,0-1.62,2,1.71,1.71,0,0,0,1.86,1.73A2.43,2.43,0,0,0,3.87,21Z"/><path class="cls-1" d="M7.9,21.54l-.11-.63h0a1.86,1.86,0,0,1-1.47.85,1.43,1.43,0,0,1-1.63-1.32c-.08-1.2.93-1.93,2.86-2.07v-.1a1,1,0,0,0-1.22-1.07A2.53,2.53,0,0,0,5,17.68l-.25-.58a3,3,0,0,1,1.6-.56c1.52-.12,2,.89,2,1.89l.14,1.86a6.43,6.43,0,0,0,.17,1.18ZM7.58,19c-1,0-2.09.31-2,1.27a.79.79,0,0,0,.92.8,1.25,1.25,0,0,0,1.14-.92,1.43,1.43,0,0,0,0-.29Z"/><path class="cls-1" d="M9.85,18c0-.58-.09-1.09-.15-1.54l.79-.06.1,1h0a1.49,1.49,0,0,1,1.3-1.19.75.75,0,0,1,.26,0l.06.85a1.55,1.55,0,0,0-.31,0,1.28,1.28,0,0,0-1.13,1.25,3,3,0,0,0,0,.43l.2,2.65-.9.06Z"/><path class="cls-1" d="M17.11,13.52l.45,6c0,.44.08.94.14,1.28l-.82.06-.1-.86h0a1.84,1.84,0,0,1-1.62,1.1,2.28,2.28,0,0,1-2.32-2.37,2.38,2.38,0,0,1,2-2.83,1.66,1.66,0,0,1,1.56.65h0l-.22-3Zm-.58,4.41a1.61,1.61,0,0,0-.07-.37,1.31,1.31,0,0,0-1.38-.95c-.93.06-1.43.93-1.35,2s.63,1.8,1.61,1.73a1.36,1.36,0,0,0,1.24-1.18,1.26,1.26,0,0,0,0-.39Z"/><path class="cls-1" d="M21.91,20.5l-.12-.62h0a1.86,1.86,0,0,1-1.46.85,1.41,1.41,0,0,1-1.63-1.31c-.09-1.2.93-1.94,2.85-2.07v-.11a1,1,0,0,0-1.21-1.06,2.47,2.47,0,0,0-1.27.46l-.25-.58a3.21,3.21,0,0,1,1.6-.56c1.52-.11,2,.9,2,1.89l.14,1.86a6.67,6.67,0,0,0,.17,1.19ZM21.59,18c-1,.05-2.1.31-2,1.28a.8.8,0,0,0,.91.8,1.24,1.24,0,0,0,1.14-.92.77.77,0,0,0,0-.3Zm.11-4.61-1.14,1.56-.65.05.79-1.54Z"/><path class="cls-1" d="M23.86,17c-.05-.64-.1-1.15-.16-1.62l.81-.06.11.85h0a1.94,1.94,0,0,1,1.69-1.1c1.2-.09,2.18.86,2.29,2.37.14,1.79-.89,2.75-2.06,2.84A1.76,1.76,0,0,1,25,19.6h0l.2,2.7-.89.07Zm1,1.26a1.91,1.91,0,0,0,.07.36,1.4,1.4,0,0,0,1.44,1c.95-.07,1.45-.89,1.36-2s-.66-1.81-1.61-1.74A1.46,1.46,0,0,0,24.82,17a1.5,1.5,0,0,0,0,.37Z"/><path class="cls-1" d="M30.49,13.46a.54.54,0,0,1-.53.6.55.55,0,0,1-.59-.52.56.56,0,0,1,.53-.6A.53.53,0,0,1,30.49,13.46ZM30,19.9l-.37-5,.9-.06.37,5Z"/><path class="cls-1" d="M36.67,16.87a2.44,2.44,0,0,1-2.28,2.82,2.37,2.37,0,0,1-2.57-2.38,2.43,2.43,0,0,1,2.27-2.82A2.35,2.35,0,0,1,36.67,16.87Zm-3.94.34c.08,1.09.77,1.86,1.65,1.8s1.45-.93,1.37-2.05c-.06-.84-.56-1.87-1.63-1.79S32.66,16.26,32.73,17.21Z"/><path class="cls-1" d="M43.71,18.7a3.39,3.39,0,0,1-1.41.39,2.36,2.36,0,0,1-2.66-2.35,2.54,2.54,0,0,1,2.48-2.84,2.94,2.94,0,0,1,1.27.17l-.16.71a2,2,0,0,0-1.06-.16,1.73,1.73,0,0,0-1.62,2,1.71,1.71,0,0,0,1.86,1.73,2.65,2.65,0,0,0,1.1-.33Z"/><path class="cls-1" d="M49,16a2.43,2.43,0,0,1-2.28,2.82,2.37,2.37,0,0,1-2.57-2.38,2.43,2.43,0,0,1,2.27-2.82A2.36,2.36,0,0,1,49,16Zm-3.94.34c.08,1.09.77,1.87,1.65,1.8s1.45-.92,1.37-2c-.06-.84-.56-1.88-1.63-1.8S45,15.35,45.09,16.29Z"/><path class="cls-1" d="M50.09,14.77c0-.52-.08-.94-.14-1.35l.79-.05.1.79h0a1.72,1.72,0,0,1,1.49-1,1.47,1.47,0,0,1,1.48.89h0a1.82,1.82,0,0,1,.51-.68,1.72,1.72,0,0,1,1.07-.44c.66,0,1.66.31,1.79,2l.22,2.93-.88.06-.21-2.81c-.07-1-.46-1.51-1.19-1.45a1.17,1.17,0,0,0-1,.9,1.64,1.64,0,0,0,0,.46l.23,3.07-.89.06-.22-3c0-.79-.45-1.34-1.13-1.29a1.26,1.26,0,0,0-1.06,1,1.33,1.33,0,0,0,0,.45l.23,3-.89.06Z"/><path class="cls-1" d="M58.68,14.41c0-.64-.1-1.15-.16-1.62l.81-.06.11.85h0a1.94,1.94,0,0,1,1.69-1.1,2.26,2.26,0,0,1,2.3,2.37c.13,1.79-.89,2.75-2.06,2.84A1.74,1.74,0,0,1,59.8,17h0l.2,2.71-.9.06Zm1,1.26c0,.13,0,.25.06.37a1.41,1.41,0,0,0,1.44.95c1-.07,1.45-.89,1.37-2s-.67-1.81-1.62-1.74a1.44,1.44,0,0,0-1.28,1.22,1.2,1.2,0,0,0,0,.38Z"/><path class="cls-1" d="M64.24,10l.9-.06.54,7.29-.9.07Z"/><path class="cls-1" d="M67.54,14.79a1.6,1.6,0,0,0,1.83,1.6A3.3,3.3,0,0,0,70.73,16l.2.63a3.87,3.87,0,0,1-1.63.43,2.31,2.31,0,0,1-2.63-2.32,2.41,2.41,0,0,1,2.13-2.85A2.11,2.11,0,0,1,71,14.11c0,.18,0,.33,0,.42Zm2.6-.85c0-.57-.35-1.45-1.36-1.37a1.5,1.5,0,0,0-1.28,1.57Z"/><path class="cls-1" d="M73,10.29l.1,1.42,1.3-.09,0,.69-1.3.09.2,2.68c.05.62.25,1,.75.92a2.06,2.06,0,0,0,.52-.1l.09.67a2,2,0,0,1-.79.18,1.21,1.21,0,0,1-1-.3,1.83,1.83,0,0,1-.45-1.27l-.2-2.71-.77,0,0-.68.77-.06-.09-1.19Z"/><path class="cls-1" d="M80,13.66a2.43,2.43,0,0,1-2.28,2.82,2.37,2.37,0,0,1-2.57-2.38,2.43,2.43,0,0,1,2.27-2.82A2.35,2.35,0,0,1,80,13.66ZM76.06,14c.08,1.09.77,1.86,1.65,1.8s1.45-.92,1.37-2c-.06-.85-.56-1.88-1.63-1.8S76,13.06,76.06,14Z"/></g></g></svg>